<?xml version="1.0" encoding="UTF-8" standalone="no"?>
<!-- Created with Inkscape (http://www.inkscape.org/) -->

<svg
   width="1024"
   height="1024"
   viewBox="0 0 1024 1024"
   version="1.1"
   id="svg1"
   xml:space="preserve"
   inkscape:version="1.3.2 (091e20e, 2023-11-25, custom)"
   sodipodi:docname="plugin_icon.svg"
   inkscape:export-filename="plugin_icon.png"
   inkscape:export-xdpi="96"
   inkscape:export-ydpi="96"
   xmlns:inkscape="http://www.inkscape.org/namespaces/inkscape"
   xmlns:sodipodi="http://sodipodi.sourceforge.net/DTD/sodipodi-0.dtd"
   xmlns="http://www.w3.org/2000/svg"
   xmlns:svg="http://www.w3.org/2000/svg"><sodipodi:namedview
     id="namedview1"
     pagecolor="#ffffff"
     bordercolor="#999999"
     borderopacity="1"
     inkscape:showpageshadow="0"
     inkscape:pageopacity="0"
     inkscape:pagecheckerboard="0"
     inkscape:deskcolor="#d1d1d1"
     inkscape:document-units="px"
     inkscape:zoom="0.35355339"
     inkscape:cx="342.23968"
     inkscape:cy="429.92092"
     inkscape:window-width="1920"
     inkscape:window-height="1017"
     inkscape:window-x="-8"
     inkscape:window-y="-8"
     inkscape:window-maximized="1"
     inkscape:current-layer="g2" /><defs
     id="defs1" /><g
     inkscape:label="Layer 1"
     inkscape:groupmode="layer"
     id="layer1"><rect
       style="fill:#363d52;fill-opacity:1;fill-rule:evenodd;stroke:#202531;stroke-width:91.8782;stroke-linejoin:round;stroke-dasharray:none;stroke-opacity:1;paint-order:stroke markers fill"
       id="rect1"
       width="921.65527"
       height="921.65527"
       x="51.172352"
       y="51.172352"
       ry="183.75636"
       rx="183.75636"
       inkscape:label="Background" /><g
       id="g11"
       transform="matrix(1.5099151,0,0,1.5099151,-353.08279,-592.55283)"
       inkscape:label="SceneOK"><path
         d="m 591.52424,610.25604 -32.43248,4.74056 11.82247,27.46069 24.78688,-3.6132 z m -61.03497,8.88857 -28.58806,4.19139 11.82257,27.48959 28.60247,-4.19136 z m -57.21936,8.35384 -28.58806,4.19137 11.82255,27.4896 28.60246,-4.19137 z m -57.19052,8.35382 -24.7724,3.61327 4.17694,28.60247 32.43251,-4.74062 z M 395.48393,682.521 v 86.71789 a 28.905972,28.905972 0 0 0 28.90593,28.90601 H 597.82573 V 682.521 Z"
         fill="#e0e0e0"
         id="path1-9"
         style="stroke:none;stroke-width:8.4146;stroke-dasharray:none;stroke-opacity:1;paint-order:markers stroke fill"
         transform="translate(17.43364)"
         inkscape:label="Scene" /><g
         id="g7"
         transform="matrix(0.71458283,0,0,0.71458283,208.45464,398.02834)"
         inkscape:label="MarkOK"><circle
           style="fill:#008000;fill-opacity:1;fill-rule:evenodd;stroke:none;stroke-width:13.6416;stroke-linejoin:round;stroke-dasharray:none;stroke-opacity:1;paint-order:markers stroke fill"
           id="path6"
           cx="521.23889"
           cy="512"
           r="38.935417" /><path
           d="m 521.25256,465.40465 a 46.595352,46.595352 0 1 0 0,93.1907 46.595352,46.595352 0 0 0 0,-93.1907 z m 21.9198,25.8071 9.4122,9.41232 -37.9885,38.00848 -24.6755,-24.7022 9.4122,-9.41229 15.2633,15.26989 z"
           fill="#5fff97"
           id="path1-04"
           style="stroke-width:6.65647" /></g><path
         d="m 497.26914,571.95998 a 13.655894,13.655894 0 1 0 -18.64029,18.6403 v 44.6616 a 13.655894,13.655894 0 1 0 18.64029,18.63346 h 44.6616 a 13.655894,13.655894 0 1 0 18.63349,-18.64029 v -44.6616 a 13.655894,13.655894 0 1 0 -18.64031,-18.63347 z m 4.66349,13.6559 h 39.99129 a 13.655894,13.655894 0 0 0 4.97757,4.9844 v 39.98446 L 501.9258,585.61588 Z m -9.65472,9.65471 44.96203,44.96886 h -39.99128 a 13.655894,13.655894 0 0 0 -4.97757,-4.9844 v -39.98446 z"
         fill="#fc7f7f"
         id="path1-92"
         style="stroke-width:6.82795"
         inkscape:label="Mesh3D"
         transform="translate(-38.275504,125.38524)" /></g><g
       id="g12"
       transform="matrix(1.5099151,0,0,1.5099151,-987.46974,-273.55507)"
       inkscape:label="SceneErr"><path
         d="m 591.52424,610.25604 -32.43248,4.74056 11.82247,27.46069 24.78688,-3.6132 z m -61.03497,8.88857 -28.58806,4.19139 11.82257,27.48959 28.60247,-4.19136 z m -57.21936,8.35384 -28.58806,4.19137 11.82255,27.4896 28.60246,-4.19137 z m -57.19052,8.35382 -24.7724,3.61327 4.17694,28.60247 32.43251,-4.74062 z M 395.48393,682.521 v 86.71789 a 28.905972,28.905972 0 0 0 28.90593,28.90601 H 597.82573 V 682.521 Z"
         fill="#e0e0e0"
         id="path7"
         style="stroke:none;stroke-width:8.4146;stroke-dasharray:none;stroke-opacity:1;paint-order:markers stroke fill"
         transform="translate(345.94507)"
         inkscape:label="Scene" /><g
         id="g10"
         transform="matrix(1.0134876,0,0,1.0134876,88.001925,13.64837)"
         inkscape:label="MarkError"><circle
           style="fill:#800000;fill-opacity:1;fill-rule:evenodd;stroke:none;stroke-width:9.88127;stroke-linejoin:round;stroke-dasharray:none;stroke-opacity:1;paint-order:markers stroke fill"
           id="path6-6"
           cx="810.27002"
           cy="739.80194"
           r="28.202799" /><path
           d="m 809.90263,706.9369 a 32.890805,32.890805 0 0 0 0,65.78161 32.890805,32.890805 0 0 0 0,-65.78161 z m -13.28787,12.95895 13.28787,13.28788 13.28796,-13.28788 6.64389,6.64398 -13.28787,13.28787 13.28787,13.28787 -6.64389,6.6439 -13.28796,-13.28787 -13.28787,13.28787 -6.64389,-6.6439 13.28787,-13.28787 -13.28787,-13.28787 z"
           fill="#ff5f5f"
           id="path1-18"
           style="stroke-width:4.69871" /></g><rect
         style="fill:#5971be;fill-opacity:1;fill-rule:evenodd;stroke:none;stroke-width:13.2458;stroke-linejoin:round;stroke-dasharray:none;stroke-opacity:1;paint-order:markers stroke fill"
         id="rect15"
         width="76.025703"
         height="70.153748"
         x="775.55573"
         y="713.33954"
         ry="10.816664"
         rx="10.198569" /><path
         d="m 340.19053,795.36729 a 27.918,27.918 0 0 0 -27.91801,27.91801 v 41.87699 a 27.918,27.918 0 0 0 27.91801,27.918 h 41.87699 a 27.918,27.918 0 0 0 27.91803,-27.918 V 823.2853 a 27.918,27.918 0 0 0 -27.91803,-27.91801 z m -13.95901,41.87701 a 6.9795052,6.9795052 0 0 1 13.95901,0 v 13.95899 a 6.9795052,6.9795052 0 0 1 -13.95901,0 z m 69.79498,13.95899 a 6.9794998,6.9794998 0 0 1 -13.95898,0 V 837.2443 a 6.9794998,6.9794998 0 0 1 13.95898,0 z m -15.15946,26.71753 a 27.918,27.918 0 0 1 -39.47605,0 6.9794998,6.9794998 0 0 1 9.86902,-9.86902 13.958999,13.958999 0 0 0 19.73802,0 6.9794998,6.9794998 0 0 1 9.86901,9.86902 z"
         fill="#8da5f3"
         id="path1-2"
         style="stroke-width:6.9795"
         transform="translate(452.57683,-105.58757)"
         inkscape:label="Sprite2D" /></g><g
       id="g14"
       transform="matrix(1.5099151,0,0,1.5099151,24.646559,-300.94415)"
       inkscape:label="SceneObj"><path
         d="m 591.52424,610.25604 -32.43248,4.74056 11.82247,27.46069 24.78688,-3.6132 z m -61.03497,8.88857 -28.58806,4.19139 11.82257,27.48959 28.60247,-4.19136 z m -57.21936,8.35384 -28.58806,4.19137 11.82255,27.4896 28.60246,-4.19137 z m -57.19052,8.35382 -24.7724,3.61327 4.17694,28.60247 32.43251,-4.74062 z M 395.48393,682.521 v 86.71789 a 28.905972,28.905972 0 0 0 28.90593,28.90601 H 597.82573 V 682.521 Z"
         fill="#e0e0e0"
         id="path7-5"
         style="stroke:none;stroke-width:8.4146;stroke-dasharray:none;stroke-opacity:1;paint-order:markers stroke fill"
         transform="translate(17.43364,-55.25604)"
         inkscape:label="Scene" /><g
         id="g13"
         transform="matrix(0.72419933,0,0,0.72419933,208.94536,212.49925)"
         inkscape:label="MarkQuestion"><circle
           style="fill:#f2f24c;fill-opacity:1;fill-rule:evenodd;stroke:none;stroke-width:20;stroke-linejoin:round;stroke-dasharray:none;stroke-opacity:1;paint-order:markers stroke fill"
           id="path12"
           cx="512"
           cy="683.63928"
           r="45.963604" /><path
           style="font-weight:bold;font-size:53.3333px;line-height:1.25;font-family:'Roboto Mono';-inkscape-font-specification:'Roboto Mono Bold';letter-spacing:0px;word-spacing:0px;fill:#808000;stroke-width:1.57996"
           d="m 506.56891,696.12215 q 0,-2.83899 0.12339,-4.81394 0.16459,-1.97496 0.69947,-3.53846 0.53488,-1.60466 1.60466,-2.92129 1.06976,-1.35777 3.00357,-2.88013 1.39892,-1.2755 2.79785,-2.67442 1.39893,-1.44007 2.50984,-2.92129 1.15205,-1.52235 1.8515,-3.08585 0.69947,-1.56352 0.69947,-3.12702 0,-3.74418 -2.01609,-5.47227 -2.0161,-1.72808 -5.8837,-1.72808 -1.48122,0 -2.88015,0.41145 -1.39892,0.3703 -2.50983,1.23435 -1.06976,0.86403 -1.76923,2.22182 -0.65832,1.35777 -0.69947,3.25044 h -11.4794 q 0.0411,-4.19677 1.56349,-7.28263 1.52236,-3.12702 4.1145,-5.18426 2.59212,-2.05723 6.08943,-3.04471 3.49731,-1.02862 7.57066,-1.02862 4.56708,0 8.18781,1.02862 3.62076,1.02861 6.08945,3.08586 2.50984,2.01609 3.82647,5.01966 1.31662,3.00358 1.31662,6.95348 0,2.92129 -0.98747,5.34884 -0.98747,2.3864 -2.55098,4.48479 -1.56349,2.05724 -3.5796,3.94989 -1.97496,1.85154 -3.99105,3.62076 -1.23434,1.23435 -1.93381,2.18068 -0.69947,0.94632 -1.02861,1.9338 -0.28802,0.98748 -0.37032,2.18068 -0.0823,1.15207 -0.0823,2.79785 z m -1.68694,12.46689 q 0,-1.35777 0.45259,-2.50984 0.4526,-1.19318 1.31663,-2.05724 0.86406,-0.86403 2.0984,-1.31663 1.23435,-0.49373 2.79785,-0.49373 1.52236,0 2.7567,0.49373 1.27549,0.4526 2.13954,1.31663 0.86403,0.86406 1.31663,2.05724 0.49374,1.15207 0.49374,2.50984 0,1.31665 -0.49374,2.46869 -0.45259,1.15206 -1.31663,1.97495 -0.86405,0.82292 -2.13954,1.2755 -1.23434,0.49373 -2.7567,0.49373 -1.5635,0 -2.79785,-0.49373 -1.23434,-0.45258 -2.0984,-1.2755 -0.86403,-0.82289 -1.31663,-1.97495 -0.45259,-1.15204 -0.45259,-2.46869 z"
           id="text12"
           aria-label="?" /></g><path
         d="m 439.62091,659.382 a 6.4751447,6.4751447 0 0 0 -3.58078,5.80172 v 38.85087 a 6.4751447,6.4751447 0 0 0 3.58078,5.79526 l 38.85087,19.42543 a 6.4751447,6.4751447 0 0 0 5.78877,0 l 38.85087,-19.42543 a 6.4751447,6.4751447 0 0 0 3.58078,-5.79526 v -38.85087 a 6.4751447,6.4751447 0 0 0 -3.58078,-5.78877 l -38.85087,-19.42543 a 6.4751447,6.4751447 0 0 0 -5.78877,0 z m 41.74526,-6.47515 24.37246,12.18622 -24.37246,12.18623 -24.37247,-12.18623 z m -32.37571,22.66301 25.90054,12.95029 v 24.38539 l -25.90054,-12.95029 z"
         fill="#e0e0e0"
         id="path1-6"
         style="fill:#4d4d4d;fill-opacity:1;stroke-width:6.47516"
         inkscape:label="Object" /></g><g
       id="g1"
       transform="matrix(14.248347,0,0,14.248347,-7764.5397,-7666.9005)"
       inkscape:label="Conversion"><path
         d="m 573.24059,552.42958 h -5.27366 l 3.01352,3.01352 m -3.01352,-3.01352 3.01352,-3.01352"
         fill="none"
         stroke-linecap="round"
         stroke-linejoin="round"
         stroke-width="1.50676"
         stroke="#e0e0e0"
         id="path1-4"
         inkscape:label="ArrowL" /><path
         d="m 573.24059,552.42958 h 11.3007 l -3.01352,-3.01352 m 3.01352,3.01352 -3.01352,3.01352"
         fill="none"
         stroke-linecap="round"
         stroke-linejoin="round"
         stroke-width="1.50676"
         stroke="#e0e0e0"
         id="path1-0"
         sodipodi:nodetypes="ccccc"
         inkscape:label="ArrowR" /><path
         d="m 581.5586,517.72158 v 8.89746 h 2.22436 a 3.3365472,3.3365472 0 0 0 0,-6.67309 v -2.22437 z m -1.11218,5.56091 a 3.33655,3.33655 0 0 0 -6.6731,0 3.33655,3.33655 0 0 0 6.6731,0 z m 7.78527,-1.11218 v 3.33655 a 1.1121823,1.1121823 0 0 1 -1.11218,1.11218 h -1.11218 v 2.22437 h 1.11218 a 3.336547,3.336547 0 0 0 3.33654,-3.33655 v -3.33655 z m -11.12182,0 a 1.112185,1.112185 0 0 1 0,2.22437 1.112185,1.112185 0 0 1 0,-2.22437 z m 6.67309,0 a 1.112185,1.112185 0 0 1 0,2.22437 z m 4.44873,-4.44873 h 2.22436 v 2.22437 h -2.22436 z"
         fill="#55f3e3"
         id="path1"
         style="display:none;fill:#42ffc2;fill-opacity:1;stroke-width:1.11218"
         inkscape:label="Object" /><path
         d="m 557.67588,546.84649 h -3.29051 a 2.7420906,2.7420906 0 0 0 0,5.48418 0.54842,0.54842 0 0 1 0,1.09684 h -3.29051 v 2.19367 h 3.29051 a 2.7420906,2.7420906 0 0 0 0,-5.48418 0.54842,0.54842 0 0 1 0,-1.09684 h 3.29051 z m 1.09683,0 v 5.48418 a 3.2905087,3.2905087 0 0 0 3.29051,3.29051 v -2.19367 a 1.0968362,1.0968362 0 0 1 -1.09683,-1.09684 v -1.09684 h 1.09683 v -2.19367 h -1.09683 v -2.19367 z m 4.38735,8.77469 h 2.19367 v -3.29051 a 1.0968362,1.0968362 0 0 1 1.09684,-1.09684 v -2.19367 a 3.2905087,3.2905087 0 0 0 -3.29051,3.29051 z"
         fill="#4593ec"
         id="path1-1"
         style="fill:#fce541;fill-opacity:1;stroke-width:1.09684"
         inkscape:label="String" /><g
         id="g2"
         inkscape:label="Type"
         transform="matrix(0.06315827,0,0,0.06315827,579.91836,544.21788)"><path
           d="m 467.90689,99.480252 c -21.76697,-32.938045 -70.81266,-30.703405 -89.49522,4.076058 -18.68257,34.77946 6.53374,76.90559 46.01429,76.86803 h 17.39237 V 145.6396 h -17.39237 c -9.60554,0 -17.39237,-7.78683 -17.39237,-17.39237 h 60.88423 z"
           fill="#f1738f"
           id="path1-6-4"
           style="fill:#42ffc2;fill-opacity:1;stroke-width:17.3924"
           sodipodi:nodetypes="cscccsccc" /><path
           d="m 315.77762,76.105037 c 69.74384,0 69.74384,104.615823 0,104.615823 v 34.87193 H 280.90569 V 76.105037 Z m 0,69.743883 c 23.24795,0 23.24795,-34.87195 0,-34.87195 z"
           fill="#ec418e"
           id="path1-3"
           sodipodi:nodetypes="sccccsccc"
           style="fill:#42ffc2;fill-opacity:1;stroke-width:17.436" /><path
           d="m 176.64025,180.39482 v -52.14674 z m 0,-69.52898 c 1e-5,28.79984 23.34689,52.14672 52.14673,52.14672 1e-5,9.59995 -7.78229,17.38226 -17.38224,17.38226 H 194.0225 v 34.76448 h 17.38224 c 28.79985,0 52.14673,-23.34689 52.14673,-52.14674 V 76.10134 h -34.76449 v 52.14674 c -9.59994,0 -17.38224,-7.7823 -17.38224,-17.38224 v -34.7645 h -34.76449 z"
           fill="#41ecad"
           id="path1-1-6"
           style="fill:#42ffc2;fill-opacity:1;stroke-width:17.3823"
           sodipodi:nodetypes="cccscsccsscccsccs" /><path
           d="m 106.90991,41.23557 v 87.16382 c -1e-5,28.88356 23.41474,52.29831 52.2983,52.29831 v -34.86555 c -9.62785,0 -17.43277,-7.80491 -17.43277,-17.43276 v -17.43277 h 17.43277 V 76.10109 H 141.77544 V 41.23557 Z"
           fill="#4593ec"
           id="path1-65"
           style="fill:#42ffc2;fill-opacity:1;stroke-width:17.4328"
           sodipodi:nodetypes="csccscccccc" /></g></g></g></svg>
